<?xml version="1.0" encoding="utf-8"?><svg xmlns="http://www.w3.org/2000/svg" xmlns:xlink="http://www.w3.org/1999/xlink" width="240" height="240" preserveAspectRatio="xMidYMid" viewBox="0 0 240 240" style="display:block;background-color:rgb(241, 242, 243);animation-play-state:paused" ><g transform="scale(0.94)" style="animation-play-state:paused" ><defs style="animation-play-state:paused" ><g id="id-0.49142306393388036" style="animation-play-state:paused" ><g style="animation-play-state:paused" ><path d=" M35.214,89.83H23.625C16.1,89.83,10,83.729,10,76.204V24.751h54.41v6.637" data-stroke="c1" style="stroke-width:3px;stroke-miterlimit:10;stroke-linejoin:round;stroke-linecap:round;stroke:rgb(147, 219, 233);fill:none;animation-play-state:paused" ></path>
<path d=" M23.514,34.708V23.862c0-7.562,6.13-13.691,13.691-13.691h0c7.562,0,13.691,6.13,13.691,13.691v10.846" data-stroke="c1" style="stroke-width:3px;stroke-miterlimit:10;stroke-linejoin:round;stroke-linecap:round;stroke:rgb(147, 219, 233);fill:none;animation-play-state:paused" ></path>
<line x1="19.468" y1="74.805" x2="39.197" y2="74.805" data-stroke="c1" style="stroke-width:3px;stroke-miterlimit:10;stroke-linejoin:round;stroke-linecap:round;stroke:rgb(147, 219, 233);fill:none;animation-play-state:paused" ></line></g>
<g style="animation-play-state:paused" ><polygon points=" 90,89.683 44.537,89.683 51.693,52.753 82.845,52.753 	" data-stroke="c2" style="stroke-width:3px;stroke-miterlimit:10;stroke-linejoin:round;stroke-linecap:round;stroke:rgb(104, 156, 197);fill:none;animation-play-state:paused" ></polygon>
<path d=" M59.045,59.324V49.278c0-4.542,3.682-8.224,8.224-8.224h0c4.542,0,8.224,3.682,8.224,8.224v10.046" data-stroke="c2" style="stroke-width:3px;stroke-miterlimit:10;stroke-linejoin:round;stroke-linecap:round;stroke:rgb(104, 156, 197);fill:none;animation-play-state:paused" ></path></g>
<metadata xmlns:d="https://loading.io/stock/" style="animation-play-state:paused" ><d:name style="animation-play-state:paused" >shopping</d:name>
<d:tags style="animation-play-state:paused" >shopping,purchase,buy,consumption,department store,cart,checkout,bag,on sale</d:tags>
<d:license style="animation-play-state:paused" >by</d:license>
<d:slug style="animation-play-state:paused" >6jirrf</d:slug></metadata></g></defs>


































<g data-idx="0" data-dup="" dx="-128" dy="-128" style="transform-origin-z:0px;transform-origin-y:-33.234997px;transform-origin-x:-43.696999px;animation-timing-function:linear;animation-play-state:paused;animation-name:static-1c001d8d-81b8-440d-a02e-4cff11b8ea18;animation-iteration-count:infinite;animation-fill-mode:forwards;animation-duration:1s" ><g transform="translate(-128,-128)" style="animation-play-state:paused" ><polygon fill="#B3B4B4" points="95.261,98.953 73.345,96.2 74.22,90.577 94.461,93.724 " data-fill="c3" style="fill:rgb(94, 111, 163);animation-play-state:paused" ></polygon></g></g>
<g data-idx="0" data-dup="" dx="128" dy="-128" style="transform-origin-z:0px;transform-origin-y:-33.234997px;transform-origin-x:212.303001px;animation-timing-function:linear;animation-play-state:paused;animation-name:static-1c001d8d-81b8-440d-a02e-4cff11b8ea18;animation-iteration-count:infinite;animation-fill-mode:forwards;animation-duration:1s" ><g transform="translate(128,-128)" style="animation-play-state:paused" ><polygon fill="#B3B4B4" points="95.261,98.953 73.345,96.2 74.22,90.577 94.461,93.724 " data-fill="c3" style="fill:rgb(94, 111, 163);animation-play-state:paused" ></polygon></g></g>
<g data-idx="1" data-dup="" dx="-128" dy="-128" style="transform-origin-z:0px;transform-origin-y:85.47165px;transform-origin-x:-89.898998px;animation-timing-function:linear;animation-play-state:paused;animation-name:static-1c001d8d-81b8-440d-a02e-4cff11b8ea18;animation-iteration-count:infinite;animation-fill-mode:forwards;animation-duration:1s" ><g transform="translate(-128,-128)" style="animation-play-state:paused" ><path fill="#B3B4B4" d="M38.105,224.49c-0.05,0-0.099,0-0.149-0.001c-2.943-0.039-5.694-1.221-7.748-3.33
	c-4.239-4.352-4.147-11.342,0.205-15.581c2.108-2.054,4.884-3.157,7.833-3.124c2.943,0.039,5.694,1.222,7.748,3.33
	c4.239,4.352,4.147,11.342-0.205,15.58C43.716,223.383,40.992,224.49,38.105,224.49z M38.098,207.494
	c-1.567,0-3.044,0.6-4.169,1.695c-2.361,2.3-2.411,6.092-0.111,8.453c1.114,1.144,2.607,1.785,4.204,1.806
	c1.609,0.014,3.106-0.581,4.25-1.695c2.361-2.3,2.411-6.092,0.112-8.453l0,0c-1.114-1.144-2.607-1.785-4.204-1.806
	C38.152,207.494,38.125,207.494,38.098,207.494z" data-fill="c3" style="fill:rgb(94, 111, 163);animation-play-state:paused" ></path></g></g>
<g data-idx="1" data-dup="" dx="128" dy="-128" style="transform-origin-z:0px;transform-origin-y:85.47165px;transform-origin-x:166.101009px;animation-timing-function:linear;animation-play-state:paused;animation-name:static-1c001d8d-81b8-440d-a02e-4cff11b8ea18;animation-iteration-count:infinite;animation-fill-mode:forwards;animation-duration:1s" ><g transform="translate(128,-128)" style="animation-play-state:paused" ><path fill="#B3B4B4" d="M38.105,224.49c-0.05,0-0.099,0-0.149-0.001c-2.943-0.039-5.694-1.221-7.748-3.33
	c-4.239-4.352-4.147-11.342,0.205-15.581c2.108-2.054,4.884-3.157,7.833-3.124c2.943,0.039,5.694,1.222,7.748,3.33
	c4.239,4.352,4.147,11.342-0.205,15.58C43.716,223.383,40.992,224.49,38.105,224.49z M38.098,207.494
	c-1.567,0-3.044,0.6-4.169,1.695c-2.361,2.3-2.411,6.092-0.111,8.453c1.114,1.144,2.607,1.785,4.204,1.806
	c1.609,0.014,3.106-0.581,4.25-1.695c2.361-2.3,2.411-6.092,0.112-8.453l0,0c-1.114-1.144-2.607-1.785-4.204-1.806
	C38.152,207.494,38.125,207.494,38.098,207.494z" data-fill="c3" style="fill:rgb(94, 111, 163);animation-play-state:paused" ></path></g></g>
<g data-idx="2" data-dup="" dx="-128" dy="-128" style="transform-origin-z:0px;transform-origin-y:-80.499468px;transform-origin-x:106.489845px;animation-timing-function:linear;animation-play-state:paused;animation-name:static-1c001d8d-81b8-440d-a02e-4cff11b8ea18;animation-iteration-count:infinite;animation-fill-mode:forwards;animation-duration:1s" ><g transform="translate(-128,-128)" style="animation-play-state:paused" ><ellipse transform="matrix(0.7249 -0.6888 0.6888 0.7249 31.7828 174.5914)" fill="#B3B4B4" cx="234.5" cy="47.5" rx="4.4" ry="4.4" data-fill="c3" style="fill:rgb(94, 111, 163);animation-play-state:paused" ></ellipse></g></g>
<g data-idx="2" data-dup="" dx="128" dy="-128" style="transform-origin-z:0px;transform-origin-y:-80.499468px;transform-origin-x:362.489845px;animation-timing-function:linear;animation-play-state:paused;animation-name:static-1c001d8d-81b8-440d-a02e-4cff11b8ea18;animation-iteration-count:infinite;animation-fill-mode:forwards;animation-duration:1s" ><g transform="translate(128,-128)" style="animation-play-state:paused" ><ellipse transform="matrix(0.7249 -0.6888 0.6888 0.7249 31.7828 174.5914)" fill="#B3B4B4" cx="234.5" cy="47.5" rx="4.4" ry="4.4" data-fill="c3" style="fill:rgb(94, 111, 163);animation-play-state:paused" ></ellipse></g></g>
<g data-idx="3" data-dup="" dx="-128" dy="-128" style="transform-origin-z:0px;transform-origin-y:18.653026px;transform-origin-x:28.533323px;animation-timing-function:linear;animation-play-state:paused;animation-name:static-1c001d8d-81b8-440d-a02e-4cff11b8ea18;animation-iteration-count:infinite;animation-fill-mode:forwards;animation-duration:1s" ><g transform="translate(-128,-128)" style="animation-play-state:paused" ><path fill="#B3B4B4" d="M156.299,159.176l-1.714-5.053c3.929-1.333,6.042-5.614,4.709-9.543c-0.645-1.903-1.994-3.442-3.796-4.331
	c-1.803-0.89-3.844-1.024-5.747-0.378l-1.714-5.053c3.254-1.103,6.741-0.874,9.822,0.646c3.08,1.52,5.385,4.149,6.488,7.402
	C166.625,149.582,163.015,156.898,156.299,159.176z" data-fill="c3" style="fill:rgb(94, 111, 163);animation-play-state:paused" ></path></g></g>
<g data-idx="3" data-dup="" dx="128" dy="-128" style="transform-origin-z:0px;transform-origin-y:18.653026px;transform-origin-x:284.533323px;animation-timing-function:linear;animation-play-state:paused;animation-name:static-1c001d8d-81b8-440d-a02e-4cff11b8ea18;animation-iteration-count:infinite;animation-fill-mode:forwards;animation-duration:1s" ><g transform="translate(128,-128)" style="animation-play-state:paused" ><path fill="#B3B4B4" d="M156.299,159.176l-1.714-5.053c3.929-1.333,6.042-5.614,4.709-9.543c-0.645-1.903-1.994-3.442-3.796-4.331
	c-1.803-0.89-3.844-1.024-5.747-0.378l-1.714-5.053c3.254-1.103,6.741-0.874,9.822,0.646c3.08,1.52,5.385,4.149,6.488,7.402
	C166.625,149.582,163.015,156.898,156.299,159.176z" data-fill="c3" style="fill:rgb(94, 111, 163);animation-play-state:paused" ></path></g></g>
<g data-idx="4" data-dup="" dx="-128" dy="-128" style="transform-origin-z:0px;transform-origin-y:21.494942px;transform-origin-x:-25.505844px;animation-timing-function:linear;animation-play-state:paused;animation-name:static-1c001d8d-81b8-440d-a02e-4cff11b8ea18;animation-iteration-count:infinite;animation-fill-mode:forwards;animation-duration:1s" ><g transform="translate(-128,-128)" style="animation-play-state:paused" ><ellipse transform="matrix(0.7249 -0.6888 0.6888 0.7249 -74.7837 111.7244)" fill="#B3B4B4" cx="102.5" cy="149.5" rx="4.4" ry="4.4" data-fill="c3" style="fill:rgb(94, 111, 163);animation-play-state:paused" ></ellipse></g></g>
<g data-idx="4" data-dup="" dx="128" dy="-128" style="transform-origin-z:0px;transform-origin-y:21.494942px;transform-origin-x:230.494148px;animation-timing-function:linear;animation-play-state:paused;animation-name:static-1c001d8d-81b8-440d-a02e-4cff11b8ea18;animation-iteration-count:infinite;animation-fill-mode:forwards;animation-duration:1s" ><g transform="translate(128,-128)" style="animation-play-state:paused" ><ellipse transform="matrix(0.7249 -0.6888 0.6888 0.7249 -74.7837 111.7244)" fill="#B3B4B4" cx="102.5" cy="149.5" rx="4.4" ry="4.4" data-fill="c3" style="fill:rgb(94, 111, 163);animation-play-state:paused" ></ellipse></g></g>
<g data-idx="5" data-dup="" dx="-128" dy="-128" style="transform-origin-z:0px;transform-origin-y:116.691002px;transform-origin-x:114.171494px;animation-timing-function:linear;animation-play-state:paused;animation-name:static-1c001d8d-81b8-440d-a02e-4cff11b8ea18;animation-iteration-count:infinite;animation-fill-mode:forwards;animation-duration:1s" ><g transform="translate(-128,-128)" style="animation-play-state:paused" ><polygon fill="#B3B4B4" points="231.486,249.178 247.065,235.877 252.857,238.786 235.18,253.505 " data-fill="c3" style="fill:rgb(94, 111, 163);animation-play-state:paused" ></polygon></g></g>
<g data-idx="5" data-dup="" dx="128" dy="-128" style="transform-origin-z:0px;transform-origin-y:116.691002px;transform-origin-x:370.171494px;animation-timing-function:linear;animation-play-state:paused;animation-name:static-1c001d8d-81b8-440d-a02e-4cff11b8ea18;animation-iteration-count:infinite;animation-fill-mode:forwards;animation-duration:1s" ><g transform="translate(128,-128)" style="animation-play-state:paused" ><polygon fill="#B3B4B4" points="231.486,249.178 247.065,235.877 252.857,238.786 235.18,253.505 " data-fill="c3" style="fill:rgb(94, 111, 163);animation-play-state:paused" ></polygon></g></g>
<g data-idx="6" data-dup="" dx="-128" dy="-128" style="transform-origin-z:0px;transform-origin-y:-96.931499px;transform-origin-x:-20.197002px;animation-timing-function:linear;animation-play-state:paused;animation-name:static-1c001d8d-81b8-440d-a02e-4cff11b8ea18;animation-iteration-count:infinite;animation-fill-mode:forwards;animation-duration:1s" ><g transform="translate(-128,-128)" style="animation-play-state:paused" ><polygon fill="#B3B4B4" points="115.367,21.954 103.961,43.014 100.239,36.891 110.431,19.123 " data-fill="c3" style="fill:rgb(94, 111, 163);animation-play-state:paused" ></polygon></g></g>
<g data-idx="6" data-dup="" dx="128" dy="-128" style="transform-origin-z:0px;transform-origin-y:-96.931499px;transform-origin-x:235.802998px;animation-timing-function:linear;animation-play-state:paused;animation-name:static-1c001d8d-81b8-440d-a02e-4cff11b8ea18;animation-iteration-count:infinite;animation-fill-mode:forwards;animation-duration:1s" ><g transform="translate(128,-128)" style="animation-play-state:paused" ><polygon fill="#B3B4B4" points="115.367,21.954 103.961,43.014 100.239,36.891 110.431,19.123 " data-fill="c3" style="fill:rgb(94, 111, 163);animation-play-state:paused" ></polygon></g></g>
<g data-idx="7" data-dup="" dx="-128" dy="-128" style="transform-origin-z:0px;transform-origin-y:-7.150312px;transform-origin-x:94.099995px;animation-timing-function:linear;animation-play-state:paused;animation-name:static-1c001d8d-81b8-440d-a02e-4cff11b8ea18;animation-iteration-count:infinite;animation-fill-mode:forwards;animation-duration:1s" ><g transform="translate(-128,-128)" style="animation-play-state:paused" ><path fill="#B3B4B4" d="M222.104,130.57c-0.044,0-0.088,0-0.132-0.001c-2.596-0.034-5.024-1.077-6.835-2.937
	c-3.74-3.84-3.659-10.006,0.181-13.746c1.86-1.812,4.308-2.785,6.91-2.756c2.596,0.034,5.024,1.078,6.835,2.938
	c3.74,3.839,3.659,10.006-0.181,13.745C227.054,129.594,224.651,130.57,222.104,130.57z M222.099,115.576
	c-1.382,0-2.686,0.53-3.678,1.496c-2.083,2.029-2.127,5.374-0.098,7.458c0.983,1.009,2.3,1.575,3.708,1.594
	c1.42,0.013,2.74-0.512,3.749-1.495c2.083-2.029,2.127-5.374,0.098-7.457l0,0c-0.983-1.009-2.3-1.575-3.708-1.594
	C222.146,115.576,222.122,115.576,222.099,115.576z" data-fill="c3" style="fill:rgb(94, 111, 163);animation-play-state:paused" ></path></g></g>
<g data-idx="7" data-dup="" dx="128" dy="-128" style="transform-origin-z:0px;transform-origin-y:-7.150312px;transform-origin-x:350.10001px;animation-timing-function:linear;animation-play-state:paused;animation-name:static-1c001d8d-81b8-440d-a02e-4cff11b8ea18;animation-iteration-count:infinite;animation-fill-mode:forwards;animation-duration:1s" ><g transform="translate(128,-128)" style="animation-play-state:paused" ><path fill="#B3B4B4" d="M222.104,130.57c-0.044,0-0.088,0-0.132-0.001c-2.596-0.034-5.024-1.077-6.835-2.937
	c-3.74-3.84-3.659-10.006,0.181-13.746c1.86-1.812,4.308-2.785,6.91-2.756c2.596,0.034,5.024,1.078,6.835,2.938
	c3.74,3.839,3.659,10.006-0.181,13.745C227.054,129.594,224.651,130.57,222.104,130.57z M222.099,115.576
	c-1.382,0-2.686,0.53-3.678,1.496c-2.083,2.029-2.127,5.374-0.098,7.458c0.983,1.009,2.3,1.575,3.708,1.594
	c1.42,0.013,2.74-0.512,3.749-1.495c2.083-2.029,2.127-5.374,0.098-7.457l0,0c-0.983-1.009-2.3-1.575-3.708-1.594
	C222.146,115.576,222.122,115.576,222.099,115.576z" data-fill="c3" style="fill:rgb(94, 111, 163);animation-play-state:paused" ></path></g></g>
<g data-idx="8" data-dup="" dx="-128" dy="-128" style="transform-origin-z:0px;transform-origin-y:-119.157701px;transform-origin-x:46.664726px;animation-timing-function:linear;animation-play-state:paused;animation-name:static-1c001d8d-81b8-440d-a02e-4cff11b8ea18;animation-iteration-count:infinite;animation-fill-mode:forwards;animation-duration:1s" ><g transform="translate(-128,-128)" style="animation-play-state:paused" ><path fill="#B3B4B4" d="M184.509,10.022l-4.015,1.058c-0.822-3.122-4.032-4.993-7.154-4.17c-1.512,0.398-2.779,1.362-3.567,2.713
	c-0.788,1.352-1.003,2.929-0.603,4.44l-4.015,1.058c-0.681-2.585-0.315-5.28,1.031-7.589c1.346-2.309,3.511-3.956,6.096-4.637
	C177.619,1.489,183.103,4.687,184.509,10.022z" data-fill="c3" style="fill:rgb(94, 111, 163);animation-play-state:paused" ></path></g></g>
<g data-idx="8" data-dup="" dx="128" dy="-128" style="transform-origin-z:0px;transform-origin-y:-119.157701px;transform-origin-x:302.664711px;animation-timing-function:linear;animation-play-state:paused;animation-name:static-1c001d8d-81b8-440d-a02e-4cff11b8ea18;animation-iteration-count:infinite;animation-fill-mode:forwards;animation-duration:1s" ><g transform="translate(128,-128)" style="animation-play-state:paused" ><path fill="#B3B4B4" d="M184.509,10.022l-4.015,1.058c-0.822-3.122-4.032-4.993-7.154-4.17c-1.512,0.398-2.779,1.362-3.567,2.713
	c-0.788,1.352-1.003,2.929-0.603,4.44l-4.015,1.058c-0.681-2.585-0.315-5.28,1.031-7.589c1.346-2.309,3.511-3.956,6.096-4.637
	C177.619,1.489,183.103,4.687,184.509,10.022z" data-fill="c3" style="fill:rgb(94, 111, 163);animation-play-state:paused" ></path></g></g>
<g data-idx="9" data-dup="" dx="-128" dy="-128" style="transform-origin-z:0px;transform-origin-y:94.399567px;transform-origin-x:-6.924164px;animation-timing-function:linear;animation-play-state:paused;animation-name:static-1c001d8d-81b8-440d-a02e-4cff11b8ea18;animation-iteration-count:infinite;animation-fill-mode:forwards;animation-duration:1s" ><g transform="translate(-128,-128)" style="animation-play-state:paused" ><g transform="matrix(0.9912 0.1325 -0.1325 0.9912 30.542 -14.083) translate(121.067,222.398) scale(0.6786666666666666)" style="animation-play-state:paused" ><g data-icon="" transform="scale(0.9)" style="animation-play-state:paused" ><use xlink:href="#id-0.49142306393388036" x="-50" y="-50" style="animation-play-state:paused" ></use></g></g></g></g>
<g data-idx="9" data-dup="" dx="128" dy="-128" style="transform-origin-z:0px;transform-origin-y:94.399567px;transform-origin-x:249.075836px;animation-timing-function:linear;animation-play-state:paused;animation-name:static-1c001d8d-81b8-440d-a02e-4cff11b8ea18;animation-iteration-count:infinite;animation-fill-mode:forwards;animation-duration:1s" ><g transform="translate(128,-128)" style="animation-play-state:paused" ><g transform="matrix(0.9912 0.1325 -0.1325 0.9912 30.542 -14.083) translate(121.067,222.398) scale(0.6786666666666666)" style="animation-play-state:paused" ><g data-icon="" transform="scale(0.9)" style="animation-play-state:paused" ><use xlink:href="#id-0.49142306393388036" x="-50" y="-50" style="animation-play-state:paused" ></use></g></g></g></g>
<g data-idx="10" data-dup="" dx="-128" dy="-128" style="transform-origin-z:0px;transform-origin-y:-52.825768px;transform-origin-x:33.256638px;animation-timing-function:linear;animation-play-state:paused;animation-name:static-1c001d8d-81b8-440d-a02e-4cff11b8ea18;animation-iteration-count:infinite;animation-fill-mode:forwards;animation-duration:1s" ><g transform="translate(-128,-128)" style="animation-play-state:paused" ><g transform="matrix(-0.0456 0.999 -0.999 -0.0456 243.7065 -82.5047) translate(161.268,75.17099999999999) scale(0.47706666666666664)" style="animation-play-state:paused" ><g data-icon="" transform="scale(0.9)" style="animation-play-state:paused" ><use xlink:href="#id-0.49142306393388036" x="-50" y="-50" style="animation-play-state:paused" ></use></g></g></g></g>
<g data-idx="10" data-dup="" dx="128" dy="-128" style="transform-origin-z:0px;transform-origin-y:-52.825768px;transform-origin-x:289.256653px;animation-timing-function:linear;animation-play-state:paused;animation-name:static-1c001d8d-81b8-440d-a02e-4cff11b8ea18;animation-iteration-count:infinite;animation-fill-mode:forwards;animation-duration:1s" ><g transform="translate(128,-128)" style="animation-play-state:paused" ><g transform="matrix(-0.0456 0.999 -0.999 -0.0456 243.7065 -82.5047) translate(161.268,75.17099999999999) scale(0.47706666666666664)" style="animation-play-state:paused" ><g data-icon="" transform="scale(0.9)" style="animation-play-state:paused" ><use xlink:href="#id-0.49142306393388036" x="-50" y="-50" style="animation-play-state:paused" ></use></g></g></g></g>
<g data-idx="11" data-dup="" dx="-128" dy="-128" style="transform-origin-z:0px;transform-origin-y:65.082581px;transform-origin-x:87.308403px;animation-timing-function:linear;animation-play-state:paused;animation-name:static-1c001d8d-81b8-440d-a02e-4cff11b8ea18;animation-iteration-count:infinite;animation-fill-mode:forwards;animation-duration:1s" ><g transform="translate(-128,-128)" style="animation-play-state:paused" ><g transform="matrix(0.5905 -0.8071 0.8071 0.5905 -67.6584 252.8308) translate(215.293,193.0815) scale(0.5214666666666667)" style="animation-play-state:paused" ><g data-icon="" transform="scale(0.9)" style="animation-play-state:paused" ><use xlink:href="#id-0.49142306393388036" x="-50" y="-50" style="animation-play-state:paused" ></use></g></g></g></g>
<g data-idx="11" data-dup="" dx="128" dy="-128" style="transform-origin-z:0px;transform-origin-y:65.082581px;transform-origin-x:343.308388px;animation-timing-function:linear;animation-play-state:paused;animation-name:static-1c001d8d-81b8-440d-a02e-4cff11b8ea18;animation-iteration-count:infinite;animation-fill-mode:forwards;animation-duration:1s" ><g transform="translate(128,-128)" style="animation-play-state:paused" ><g transform="matrix(0.5905 -0.8071 0.8071 0.5905 -67.6584 252.8308) translate(215.293,193.0815) scale(0.5214666666666667)" style="animation-play-state:paused" ><g data-icon="" transform="scale(0.9)" style="animation-play-state:paused" ><use xlink:href="#id-0.49142306393388036" x="-50" y="-50" style="animation-play-state:paused" ></use></g></g></g></g>
<g data-idx="12" data-dup="" dx="-128" dy="-128" style="transform-origin-z:0px;transform-origin-y:-89.695759px;transform-origin-x:-78.814707px;animation-timing-function:linear;animation-play-state:paused;animation-name:static-1c001d8d-81b8-440d-a02e-4cff11b8ea18;animation-iteration-count:infinite;animation-fill-mode:forwards;animation-duration:1s" ><g transform="translate(-128,-128)" style="animation-play-state:paused" ><g transform="matrix(-0.4749 -0.8801 0.8801 -0.4749 38.8277 99.7848) translate(49.185,38.308499999999995) scale(0.5980444444444444)" style="animation-play-state:paused" ><g data-icon="" transform="scale(0.9)" style="animation-play-state:paused" ><use xlink:href="#id-0.49142306393388036" x="-50" y="-50" style="animation-play-state:paused" ></use></g></g></g></g>
<g data-idx="12" data-dup="" dx="128" dy="-128" style="transform-origin-z:0px;transform-origin-y:-89.695759px;transform-origin-x:177.185293px;animation-timing-function:linear;animation-play-state:paused;animation-name:static-1c001d8d-81b8-440d-a02e-4cff11b8ea18;animation-iteration-count:infinite;animation-fill-mode:forwards;animation-duration:1s" ><g transform="translate(128,-128)" style="animation-play-state:paused" ><g transform="matrix(-0.4749 -0.8801 0.8801 -0.4749 38.8277 99.7848) translate(49.185,38.308499999999995) scale(0.5980444444444444)" style="animation-play-state:paused" ><g data-icon="" transform="scale(0.9)" style="animation-play-state:paused" ><use xlink:href="#id-0.49142306393388036" x="-50" y="-50" style="animation-play-state:paused" ></use></g></g></g></g>
<g data-idx="13" data-dup="" dx="-128" dy="-128" style="transform-origin-z:0px;transform-origin-y:14.246841px;transform-origin-x:-89.567221px;animation-timing-function:linear;animation-play-state:paused;animation-name:static-1c001d8d-81b8-440d-a02e-4cff11b8ea18;animation-iteration-count:infinite;animation-fill-mode:forwards;animation-duration:1s" ><g transform="translate(-128,-128)" style="animation-play-state:paused" ><g transform="matrix(0.7381 -0.6747 0.6747 0.7381 -85.9069 63.1885) translate(38.434,142.243) scale(0.607688888888889)" style="animation-play-state:paused" ><g data-icon="" transform="scale(0.9)" style="animation-play-state:paused" ><use xlink:href="#id-0.49142306393388036" x="-50" y="-50" style="animation-play-state:paused" ></use></g></g></g></g>
<g data-idx="13" data-dup="" dx="128" dy="-128" style="transform-origin-z:0px;transform-origin-y:14.246841px;transform-origin-x:166.432779px;animation-timing-function:linear;animation-play-state:paused;animation-name:static-1c001d8d-81b8-440d-a02e-4cff11b8ea18;animation-iteration-count:infinite;animation-fill-mode:forwards;animation-duration:1s" ><g transform="translate(128,-128)" style="animation-play-state:paused" ><g transform="matrix(0.7381 -0.6747 0.6747 0.7381 -85.9069 63.1885) translate(38.434,142.243) scale(0.607688888888889)" style="animation-play-state:paused" ><g data-icon="" transform="scale(0.9)" style="animation-play-state:paused" ><use xlink:href="#id-0.49142306393388036" x="-50" y="-50" style="animation-play-state:paused" ></use></g></g></g></g>
<g data-idx="0" data-dup="" dx="-128" dy="128" style="transform-origin-z:0px;transform-origin-y:222.764996px;transform-origin-x:-43.696999px;animation-timing-function:linear;animation-play-state:paused;animation-name:static-1c001d8d-81b8-440d-a02e-4cff11b8ea18;animation-iteration-count:infinite;animation-fill-mode:forwards;animation-duration:1s" ><g transform="translate(-128,128)" style="animation-play-state:paused" ><polygon fill="#B3B4B4" points="95.261,98.953 73.345,96.2 74.22,90.577 94.461,93.724 " data-fill="c3" style="fill:rgb(94, 111, 163);animation-play-state:paused" ></polygon></g></g>
<g data-idx="0" data-dup="" dx="128" dy="128" style="transform-origin-z:0px;transform-origin-y:222.764996px;transform-origin-x:212.303001px;animation-timing-function:linear;animation-play-state:paused;animation-name:static-1c001d8d-81b8-440d-a02e-4cff11b8ea18;animation-iteration-count:infinite;animation-fill-mode:forwards;animation-duration:1s" ><g transform="translate(128,128)" style="animation-play-state:paused" ><polygon fill="#B3B4B4" points="95.261,98.953 73.345,96.2 74.22,90.577 94.461,93.724 " data-fill="c3" style="fill:rgb(94, 111, 163);animation-play-state:paused" ></polygon></g></g>
<g data-idx="1" data-dup="" dx="-128" dy="128" style="transform-origin-z:0px;transform-origin-y:341.471665px;transform-origin-x:-89.898998px;animation-timing-function:linear;animation-play-state:paused;animation-name:static-1c001d8d-81b8-440d-a02e-4cff11b8ea18;animation-iteration-count:infinite;animation-fill-mode:forwards;animation-duration:1s" ><g transform="translate(-128,128)" style="animation-play-state:paused" ><path fill="#B3B4B4" d="M38.105,224.49c-0.05,0-0.099,0-0.149-0.001c-2.943-0.039-5.694-1.221-7.748-3.33
	c-4.239-4.352-4.147-11.342,0.205-15.581c2.108-2.054,4.884-3.157,7.833-3.124c2.943,0.039,5.694,1.222,7.748,3.33
	c4.239,4.352,4.147,11.342-0.205,15.58C43.716,223.383,40.992,224.49,38.105,224.49z M38.098,207.494
	c-1.567,0-3.044,0.6-4.169,1.695c-2.361,2.3-2.411,6.092-0.111,8.453c1.114,1.144,2.607,1.785,4.204,1.806
	c1.609,0.014,3.106-0.581,4.25-1.695c2.361-2.3,2.411-6.092,0.112-8.453l0,0c-1.114-1.144-2.607-1.785-4.204-1.806
	C38.152,207.494,38.125,207.494,38.098,207.494z" data-fill="c3" style="fill:rgb(94, 111, 163);animation-play-state:paused" ></path></g></g>
<g data-idx="1" data-dup="" dx="128" dy="128" style="transform-origin-z:0px;transform-origin-y:341.471665px;transform-origin-x:166.101009px;animation-timing-function:linear;animation-play-state:paused;animation-name:static-1c001d8d-81b8-440d-a02e-4cff11b8ea18;animation-iteration-count:infinite;animation-fill-mode:forwards;animation-duration:1s" ><g transform="translate(128,128)" style="animation-play-state:paused" ><path fill="#B3B4B4" d="M38.105,224.49c-0.05,0-0.099,0-0.149-0.001c-2.943-0.039-5.694-1.221-7.748-3.33
	c-4.239-4.352-4.147-11.342,0.205-15.581c2.108-2.054,4.884-3.157,7.833-3.124c2.943,0.039,5.694,1.222,7.748,3.33
	c4.239,4.352,4.147,11.342-0.205,15.58C43.716,223.383,40.992,224.49,38.105,224.49z M38.098,207.494
	c-1.567,0-3.044,0.6-4.169,1.695c-2.361,2.3-2.411,6.092-0.111,8.453c1.114,1.144,2.607,1.785,4.204,1.806
	c1.609,0.014,3.106-0.581,4.25-1.695c2.361-2.3,2.411-6.092,0.112-8.453l0,0c-1.114-1.144-2.607-1.785-4.204-1.806
	C38.152,207.494,38.125,207.494,38.098,207.494z" data-fill="c3" style="fill:rgb(94, 111, 163);animation-play-state:paused" ></path></g></g>
<g data-idx="2" data-dup="" dx="-128" dy="128" style="transform-origin-z:0px;transform-origin-y:175.500525px;transform-origin-x:106.489845px;animation-timing-function:linear;animation-play-state:paused;animation-name:static-1c001d8d-81b8-440d-a02e-4cff11b8ea18;animation-iteration-count:infinite;animation-fill-mode:forwards;animation-duration:1s" ><g transform="translate(-128,128)" style="animation-play-state:paused" ><ellipse transform="matrix(0.7249 -0.6888 0.6888 0.7249 31.7828 174.5914)" fill="#B3B4B4" cx="234.5" cy="47.5" rx="4.4" ry="4.4" data-fill="c3" style="fill:rgb(94, 111, 163);animation-play-state:paused" ></ellipse></g></g>
<g data-idx="2" data-dup="" dx="128" dy="128" style="transform-origin-z:0px;transform-origin-y:175.500525px;transform-origin-x:362.489845px;animation-timing-function:linear;animation-play-state:paused;animation-name:static-1c001d8d-81b8-440d-a02e-4cff11b8ea18;animation-iteration-count:infinite;animation-fill-mode:forwards;animation-duration:1s" ><g transform="translate(128,128)" style="animation-play-state:paused" ><ellipse transform="matrix(0.7249 -0.6888 0.6888 0.7249 31.7828 174.5914)" fill="#B3B4B4" cx="234.5" cy="47.5" rx="4.4" ry="4.4" data-fill="c3" style="fill:rgb(94, 111, 163);animation-play-state:paused" ></ellipse></g></g>
<g data-idx="3" data-dup="" dx="-128" dy="128" style="transform-origin-z:0px;transform-origin-y:274.653041px;transform-origin-x:28.533323px;animation-timing-function:linear;animation-play-state:paused;animation-name:static-1c001d8d-81b8-440d-a02e-4cff11b8ea18;animation-iteration-count:infinite;animation-fill-mode:forwards;animation-duration:1s" ><g transform="translate(-128,128)" style="animation-play-state:paused" ><path fill="#B3B4B4" d="M156.299,159.176l-1.714-5.053c3.929-1.333,6.042-5.614,4.709-9.543c-0.645-1.903-1.994-3.442-3.796-4.331
	c-1.803-0.89-3.844-1.024-5.747-0.378l-1.714-5.053c3.254-1.103,6.741-0.874,9.822,0.646c3.08,1.52,5.385,4.149,6.488,7.402
	C166.625,149.582,163.015,156.898,156.299,159.176z" data-fill="c3" style="fill:rgb(94, 111, 163);animation-play-state:paused" ></path></g></g>
<g data-idx="3" data-dup="" dx="128" dy="128" style="transform-origin-z:0px;transform-origin-y:274.653041px;transform-origin-x:284.533323px;animation-timing-function:linear;animation-play-state:paused;animation-name:static-1c001d8d-81b8-440d-a02e-4cff11b8ea18;animation-iteration-count:infinite;animation-fill-mode:forwards;animation-duration:1s" ><g transform="translate(128,128)" style="animation-play-state:paused" ><path fill="#B3B4B4" d="M156.299,159.176l-1.714-5.053c3.929-1.333,6.042-5.614,4.709-9.543c-0.645-1.903-1.994-3.442-3.796-4.331
	c-1.803-0.89-3.844-1.024-5.747-0.378l-1.714-5.053c3.254-1.103,6.741-0.874,9.822,0.646c3.08,1.52,5.385,4.149,6.488,7.402
	C166.625,149.582,163.015,156.898,156.299,159.176z" data-fill="c3" style="fill:rgb(94, 111, 163);animation-play-state:paused" ></path></g></g>
<g data-idx="4" data-dup="" dx="-128" dy="128" style="transform-origin-z:0px;transform-origin-y:277.494942px;transform-origin-x:-25.505844px;animation-timing-function:linear;animation-play-state:paused;animation-name:static-1c001d8d-81b8-440d-a02e-4cff11b8ea18;animation-iteration-count:infinite;animation-fill-mode:forwards;animation-duration:1s" ><g transform="translate(-128,128)" style="animation-play-state:paused" ><ellipse transform="matrix(0.7249 -0.6888 0.6888 0.7249 -74.7837 111.7244)" fill="#B3B4B4" cx="102.5" cy="149.5" rx="4.4" ry="4.4" data-fill="c3" style="fill:rgb(94, 111, 163);animation-play-state:paused" ></ellipse></g></g>
<g data-idx="4" data-dup="" dx="128" dy="128" style="transform-origin-z:0px;transform-origin-y:277.494942px;transform-origin-x:230.494148px;animation-timing-function:linear;animation-play-state:paused;animation-name:static-1c001d8d-81b8-440d-a02e-4cff11b8ea18;animation-iteration-count:infinite;animation-fill-mode:forwards;animation-duration:1s" ><g transform="translate(128,128)" style="animation-play-state:paused" ><ellipse transform="matrix(0.7249 -0.6888 0.6888 0.7249 -74.7837 111.7244)" fill="#B3B4B4" cx="102.5" cy="149.5" rx="4.4" ry="4.4" data-fill="c3" style="fill:rgb(94, 111, 163);animation-play-state:paused" ></ellipse></g></g>
<g data-idx="5" data-dup="" dx="-128" dy="128" style="transform-origin-z:0px;transform-origin-y:372.691017px;transform-origin-x:114.171494px;animation-timing-function:linear;animation-play-state:paused;animation-name:static-1c001d8d-81b8-440d-a02e-4cff11b8ea18;animation-iteration-count:infinite;animation-fill-mode:forwards;animation-duration:1s" ><g transform="translate(-128,128)" style="animation-play-state:paused" ><polygon fill="#B3B4B4" points="231.486,249.178 247.065,235.877 252.857,238.786 235.18,253.505 " data-fill="c3" style="fill:rgb(94, 111, 163);animation-play-state:paused" ></polygon></g></g>
<g data-idx="5" data-dup="" dx="128" dy="128" style="transform-origin-z:0px;transform-origin-y:372.691017px;transform-origin-x:370.171494px;animation-timing-function:linear;animation-play-state:paused;animation-name:static-1c001d8d-81b8-440d-a02e-4cff11b8ea18;animation-iteration-count:infinite;animation-fill-mode:forwards;animation-duration:1s" ><g transform="translate(128,128)" style="animation-play-state:paused" ><polygon fill="#B3B4B4" points="231.486,249.178 247.065,235.877 252.857,238.786 235.18,253.505 " data-fill="c3" style="fill:rgb(94, 111, 163);animation-play-state:paused" ></polygon></g></g>
<g data-idx="6" data-dup="" dx="-128" dy="128" style="transform-origin-z:0px;transform-origin-y:159.068501px;transform-origin-x:-20.197002px;animation-timing-function:linear;animation-play-state:paused;animation-name:static-1c001d8d-81b8-440d-a02e-4cff11b8ea18;animation-iteration-count:infinite;animation-fill-mode:forwards;animation-duration:1s" ><g transform="translate(-128,128)" style="animation-play-state:paused" ><polygon fill="#B3B4B4" points="115.367,21.954 103.961,43.014 100.239,36.891 110.431,19.123 " data-fill="c3" style="fill:rgb(94, 111, 163);animation-play-state:paused" ></polygon></g></g>
<g data-idx="6" data-dup="" dx="128" dy="128" style="transform-origin-z:0px;transform-origin-y:159.068501px;transform-origin-x:235.802998px;animation-timing-function:linear;animation-play-state:paused;animation-name:static-1c001d8d-81b8-440d-a02e-4cff11b8ea18;animation-iteration-count:infinite;animation-fill-mode:forwards;animation-duration:1s" ><g transform="translate(128,128)" style="animation-play-state:paused" ><polygon fill="#B3B4B4" points="115.367,21.954 103.961,43.014 100.239,36.891 110.431,19.123 " data-fill="c3" style="fill:rgb(94, 111, 163);animation-play-state:paused" ></polygon></g></g>
<g data-idx="7" data-dup="" dx="-128" dy="128" style="transform-origin-z:0px;transform-origin-y:248.84968px;transform-origin-x:94.099995px;animation-timing-function:linear;animation-play-state:paused;animation-name:static-1c001d8d-81b8-440d-a02e-4cff11b8ea18;animation-iteration-count:infinite;animation-fill-mode:forwards;animation-duration:1s" ><g transform="translate(-128,128)" style="animation-play-state:paused" ><path fill="#B3B4B4" d="M222.104,130.57c-0.044,0-0.088,0-0.132-0.001c-2.596-0.034-5.024-1.077-6.835-2.937
	c-3.74-3.84-3.659-10.006,0.181-13.746c1.86-1.812,4.308-2.785,6.91-2.756c2.596,0.034,5.024,1.078,6.835,2.938
	c3.74,3.839,3.659,10.006-0.181,13.745C227.054,129.594,224.651,130.57,222.104,130.57z M222.099,115.576
	c-1.382,0-2.686,0.53-3.678,1.496c-2.083,2.029-2.127,5.374-0.098,7.458c0.983,1.009,2.3,1.575,3.708,1.594
	c1.42,0.013,2.74-0.512,3.749-1.495c2.083-2.029,2.127-5.374,0.098-7.457l0,0c-0.983-1.009-2.3-1.575-3.708-1.594
	C222.146,115.576,222.122,115.576,222.099,115.576z" data-fill="c3" style="fill:rgb(94, 111, 163);animation-play-state:paused" ></path></g></g>
<g data-idx="7" data-dup="" dx="128" dy="128" style="transform-origin-z:0px;transform-origin-y:248.84968px;transform-origin-x:350.10001px;animation-timing-function:linear;animation-play-state:paused;animation-name:static-1c001d8d-81b8-440d-a02e-4cff11b8ea18;animation-iteration-count:infinite;animation-fill-mode:forwards;animation-duration:1s" ><g transform="translate(128,128)" style="animation-play-state:paused" ><path fill="#B3B4B4" d="M222.104,130.57c-0.044,0-0.088,0-0.132-0.001c-2.596-0.034-5.024-1.077-6.835-2.937
	c-3.74-3.84-3.659-10.006,0.181-13.746c1.86-1.812,4.308-2.785,6.91-2.756c2.596,0.034,5.024,1.078,6.835,2.938
	c3.74,3.839,3.659,10.006-0.181,13.745C227.054,129.594,224.651,130.57,222.104,130.57z M222.099,115.576
	c-1.382,0-2.686,0.53-3.678,1.496c-2.083,2.029-2.127,5.374-0.098,7.458c0.983,1.009,2.3,1.575,3.708,1.594
	c1.42,0.013,2.74-0.512,3.749-1.495c2.083-2.029,2.127-5.374,0.098-7.457l0,0c-0.983-1.009-2.3-1.575-3.708-1.594
	C222.146,115.576,222.122,115.576,222.099,115.576z" data-fill="c3" style="fill:rgb(94, 111, 163);animation-play-state:paused" ></path></g></g>
<g data-idx="8" data-dup="" dx="-128" dy="128" style="transform-origin-z:0px;transform-origin-y:136.842299px;transform-origin-x:46.664726px;animation-timing-function:linear;animation-play-state:paused;animation-name:static-1c001d8d-81b8-440d-a02e-4cff11b8ea18;animation-iteration-count:infinite;animation-fill-mode:forwards;animation-duration:1s" ><g transform="translate(-128,128)" style="animation-play-state:paused" ><path fill="#B3B4B4" d="M184.509,10.022l-4.015,1.058c-0.822-3.122-4.032-4.993-7.154-4.17c-1.512,0.398-2.779,1.362-3.567,2.713
	c-0.788,1.352-1.003,2.929-0.603,4.44l-4.015,1.058c-0.681-2.585-0.315-5.28,1.031-7.589c1.346-2.309,3.511-3.956,6.096-4.637
	C177.619,1.489,183.103,4.687,184.509,10.022z" data-fill="c3" style="fill:rgb(94, 111, 163);animation-play-state:paused" ></path></g></g>
<g data-idx="8" data-dup="" dx="128" dy="128" style="transform-origin-z:0px;transform-origin-y:136.842299px;transform-origin-x:302.664711px;animation-timing-function:linear;animation-play-state:paused;animation-name:static-1c001d8d-81b8-440d-a02e-4cff11b8ea18;animation-iteration-count:infinite;animation-fill-mode:forwards;animation-duration:1s" ><g transform="translate(128,128)" style="animation-play-state:paused" ><path fill="#B3B4B4" d="M184.509,10.022l-4.015,1.058c-0.822-3.122-4.032-4.993-7.154-4.17c-1.512,0.398-2.779,1.362-3.567,2.713
	c-0.788,1.352-1.003,2.929-0.603,4.44l-4.015,1.058c-0.681-2.585-0.315-5.28,1.031-7.589c1.346-2.309,3.511-3.956,6.096-4.637
	C177.619,1.489,183.103,4.687,184.509,10.022z" data-fill="c3" style="fill:rgb(94, 111, 163);animation-play-state:paused" ></path></g></g>
<g data-idx="9" data-dup="" dx="-128" dy="128" style="transform-origin-z:0px;transform-origin-y:350.399567px;transform-origin-x:-6.924164px;animation-timing-function:linear;animation-play-state:paused;animation-name:static-1c001d8d-81b8-440d-a02e-4cff11b8ea18;animation-iteration-count:infinite;animation-fill-mode:forwards;animation-duration:1s" ><g transform="translate(-128,128)" style="animation-play-state:paused" ><g transform="matrix(0.9912 0.1325 -0.1325 0.9912 30.542 -14.083) translate(121.067,222.398) scale(0.6786666666666666)" style="animation-play-state:paused" ><g data-icon="" transform="scale(0.9)" style="animation-play-state:paused" ><use xlink:href="#id-0.49142306393388036" x="-50" y="-50" style="animation-play-state:paused" ></use></g></g></g></g>
<g data-idx="9" data-dup="" dx="128" dy="128" style="transform-origin-z:0px;transform-origin-y:350.399567px;transform-origin-x:249.075836px;animation-timing-function:linear;animation-play-state:paused;animation-name:static-1c001d8d-81b8-440d-a02e-4cff11b8ea18;animation-iteration-count:infinite;animation-fill-mode:forwards;animation-duration:1s" ><g transform="translate(128,128)" style="animation-play-state:paused" ><g transform="matrix(0.9912 0.1325 -0.1325 0.9912 30.542 -14.083) translate(121.067,222.398) scale(0.6786666666666666)" style="animation-play-state:paused" ><g data-icon="" transform="scale(0.9)" style="animation-play-state:paused" ><use xlink:href="#id-0.49142306393388036" x="-50" y="-50" style="animation-play-state:paused" ></use></g></g></g></g>
<g data-idx="10" data-dup="" dx="-128" dy="128" style="transform-origin-z:0px;transform-origin-y:203.174225px;transform-origin-x:33.256638px;animation-timing-function:linear;animation-play-state:paused;animation-name:static-1c001d8d-81b8-440d-a02e-4cff11b8ea18;animation-iteration-count:infinite;animation-fill-mode:forwards;animation-duration:1s" ><g transform="translate(-128,128)" style="animation-play-state:paused" ><g transform="matrix(-0.0456 0.999 -0.999 -0.0456 243.7065 -82.5047) translate(161.268,75.17099999999999) scale(0.47706666666666664)" style="animation-play-state:paused" ><g data-icon="" transform="scale(0.9)" style="animation-play-state:paused" ><use xlink:href="#id-0.49142306393388036" x="-50" y="-50" style="animation-play-state:paused" ></use></g></g></g></g>
<g data-idx="10" data-dup="" dx="128" dy="128" style="transform-origin-z:0px;transform-origin-y:203.174225px;transform-origin-x:289.256653px;animation-timing-function:linear;animation-play-state:paused;animation-name:static-1c001d8d-81b8-440d-a02e-4cff11b8ea18;animation-iteration-count:infinite;animation-fill-mode:forwards;animation-duration:1s" ><g transform="translate(128,128)" style="animation-play-state:paused" ><g transform="matrix(-0.0456 0.999 -0.999 -0.0456 243.7065 -82.5047) translate(161.268,75.17099999999999) scale(0.47706666666666664)" style="animation-play-state:paused" ><g data-icon="" transform="scale(0.9)" style="animation-play-state:paused" ><use xlink:href="#id-0.49142306393388036" x="-50" y="-50" style="animation-play-state:paused" ></use></g></g></g></g>
<g data-idx="11" data-dup="" dx="-128" dy="128" style="transform-origin-z:0px;transform-origin-y:321.082565px;transform-origin-x:87.308403px;animation-timing-function:linear;animation-play-state:paused;animation-name:static-1c001d8d-81b8-440d-a02e-4cff11b8ea18;animation-iteration-count:infinite;animation-fill-mode:forwards;animation-duration:1s" ><g transform="translate(-128,128)" style="animation-play-state:paused" ><g transform="matrix(0.5905 -0.8071 0.8071 0.5905 -67.6584 252.8308) translate(215.293,193.0815) scale(0.5214666666666667)" style="animation-play-state:paused" ><g data-icon="" transform="scale(0.9)" style="animation-play-state:paused" ><use xlink:href="#id-0.49142306393388036" x="-50" y="-50" style="animation-play-state:paused" ></use></g></g></g></g>
<g data-idx="11" data-dup="" dx="128" dy="128" style="transform-origin-z:0px;transform-origin-y:321.082565px;transform-origin-x:343.308388px;animation-timing-function:linear;animation-play-state:paused;animation-name:static-1c001d8d-81b8-440d-a02e-4cff11b8ea18;animation-iteration-count:infinite;animation-fill-mode:forwards;animation-duration:1s" ><g transform="translate(128,128)" style="animation-play-state:paused" ><g transform="matrix(0.5905 -0.8071 0.8071 0.5905 -67.6584 252.8308) translate(215.293,193.0815) scale(0.5214666666666667)" style="animation-play-state:paused" ><g data-icon="" transform="scale(0.9)" style="animation-play-state:paused" ><use xlink:href="#id-0.49142306393388036" x="-50" y="-50" style="animation-play-state:paused" ></use></g></g></g></g>
<g data-idx="12" data-dup="" dx="-128" dy="128" style="transform-origin-z:0px;transform-origin-y:166.304249px;transform-origin-x:-78.814707px;animation-timing-function:linear;animation-play-state:paused;animation-name:static-1c001d8d-81b8-440d-a02e-4cff11b8ea18;animation-iteration-count:infinite;animation-fill-mode:forwards;animation-duration:1s" ><g transform="translate(-128,128)" style="animation-play-state:paused" ><g transform="matrix(-0.4749 -0.8801 0.8801 -0.4749 38.8277 99.7848) translate(49.185,38.308499999999995) scale(0.5980444444444444)" style="animation-play-state:paused" ><g data-icon="" transform="scale(0.9)" style="animation-play-state:paused" ><use xlink:href="#id-0.49142306393388036" x="-50" y="-50" style="animation-play-state:paused" ></use></g></g></g></g>
<g data-idx="12" data-dup="" dx="128" dy="128" style="transform-origin-z:0px;transform-origin-y:166.304249px;transform-origin-x:177.185293px;animation-timing-function:linear;animation-play-state:paused;animation-name:static-1c001d8d-81b8-440d-a02e-4cff11b8ea18;animation-iteration-count:infinite;animation-fill-mode:forwards;animation-duration:1s" ><g transform="translate(128,128)" style="animation-play-state:paused" ><g transform="matrix(-0.4749 -0.8801 0.8801 -0.4749 38.8277 99.7848) translate(49.185,38.308499999999995) scale(0.5980444444444444)" style="animation-play-state:paused" ><g data-icon="" transform="scale(0.9)" style="animation-play-state:paused" ><use xlink:href="#id-0.49142306393388036" x="-50" y="-50" style="animation-play-state:paused" ></use></g></g></g></g>
<g data-idx="13" data-dup="" dx="-128" dy="128" style="transform-origin-z:0px;transform-origin-y:270.246841px;transform-origin-x:-89.567221px;animation-timing-function:linear;animation-play-state:paused;animation-name:static-1c001d8d-81b8-440d-a02e-4cff11b8ea18;animation-iteration-count:infinite;animation-fill-mode:forwards;animation-duration:1s" ><g transform="translate(-128,128)" style="animation-play-state:paused" ><g transform="matrix(0.7381 -0.6747 0.6747 0.7381 -85.9069 63.1885) translate(38.434,142.243) scale(0.607688888888889)" style="animation-play-state:paused" ><g data-icon="" transform="scale(0.9)" style="animation-play-state:paused" ><use xlink:href="#id-0.49142306393388036" x="-50" y="-50" style="animation-play-state:paused" ></use></g></g></g></g>
<g data-idx="13" data-dup="" dx="128" dy="128" style="transform-origin-z:0px;transform-origin-y:270.246841px;transform-origin-x:166.432779px;animation-timing-function:linear;animation-play-state:paused;animation-name:static-1c001d8d-81b8-440d-a02e-4cff11b8ea18;animation-iteration-count:infinite;animation-fill-mode:forwards;animation-duration:1s" ><g transform="translate(128,128)" style="animation-play-state:paused" ><g transform="matrix(0.7381 -0.6747 0.6747 0.7381 -85.9069 63.1885) translate(38.434,142.243) scale(0.607688888888889)" style="animation-play-state:paused" ><g data-icon="" transform="scale(0.9)" style="animation-play-state:paused" ><use xlink:href="#id-0.49142306393388036" x="-50" y="-50" style="animation-play-state:paused" ></use></g></g></g></g></g></svg>